PathFileType	4	(X/Y/Z)	./resultDataOpenSim/trcMotMarkerGrf/sub10/qtm-13-05.trc
DataRate	CameraRate	NumFrames	NumMarkers	Units	OrigDataRate	OrigDataStartFrame	OrigNumFrames
250.000000	250.000000	9	24	m	250.000000	123	491
Frame#	Time	L.Toe.Tip			R.Toe.Tip			L.Ankle.Lat			R.Ankle.Lat			L.Ankle.Med			R.Ankle.Med			L.Heel			R.Heel			L.Knee.Lat			R.Knee.Lat			L.Knee.Med			R.Knee.Med			L.Thigh.Upper			R.Thigh.Upper			L.ASIS			R.ASIS			V.Sacral			L.Acromium			R.Acromium			C7			L.Elbow			R.Elbow			L.Wrist.Lat			R.Wrist.Lat
		X1	Y1	Z1	X2	Y2	Z2	X3	Y3	Z3	X4	Y4	Z4	X5	Y5	Z5	X6	Y6	Z6	X7	Y7	Z7	X8	Y8	Z8	X9	Y9	Z9	X10	Y10	Z10	X11	Y11	Z11	X12	Y12	Z12	X13	Y13	Z13	X14	Y14	Z14	X15	Y15	Z15	X16	Y16	Z16	X17	Y17	Z17	X18	Y18	Z18	X19	Y19	Z19	X20	Y20	Z20	X21	Y21	Z21	X22	Y22	Z22	X23	Y23	Z23	X24	Y24	Z24

123	0.488	-0.19444226	0.10239129	-0.15518943	-0.7387767	0.039155712	-0.052568643	-0.32327849	0.075900617	-0.19237047	-0.88168712	0.053291406	-0.027134856	-0.32502868	0.10410071	-0.10995062	-0.85541754	0.083765339	-0.10739632	-0.3716548	0.023914038	-0.14990126	-0.92955778	0.031808604	-0.082140478	-0.43848961	0.44535904	-0.21627639	-0.75977848	0.44148063	0.044862364	-0.43151535	0.42507953	-0.096607337	-0.74107689	0.44432617	-0.084704041	-0.5750855	0.8126066	-0.25814162	-0.6761176	0.8439564	0.11472268	-0.53574305	0.91897761	-0.18114768	-0.57629316	0.92884648	0.057771431	-0.75632853	0.94297443	-0.10605241	-0.59091318	1.3994089	-0.21321084	-0.60638684	1.3845635	0.10690905	-0.68002948	1.4251738	-0.058599493	-0.77850328	1.1245213	-0.29580458	-0.61477337	1.0253161	0.16035337	-0.74154915	0.88082567	-0.30790372	-0.40365054	0.89078378	0.13230067
124	0.492	-0.18158598	0.10615839	-0.15242856	-0.73869731	0.039099733	-0.052620073	-0.30954973	0.076692141	-0.19055618	-0.88141404	0.05369287	-0.02732932	-0.31228004	0.10527884	-0.10823671	-0.85511954	0.083684687	-0.10771215	-0.35676965	0.023391789	-0.14819165	-0.92947799	0.032136276	-0.082266377	-0.43227042	0.44387139	-0.21539657	-0.75600666	0.440512	0.044147035	-0.4256421	0.4236987	-0.095472429	-0.73663008	0.4434256	-0.085073801	-0.56861378	0.81113514	-0.25808404	-0.67124423	0.84267045	0.11428322	-0.52897482	0.91756147	-0.18109052	-0.57121423	0.92760921	0.057870791	-0.75000692	0.94119533	-0.10679954	-0.58522623	1.3978049	-0.2130588	-0.60092782	1.383139	0.10702145	-0.67454103	1.4236626	-0.05855873	-0.77347883	1.1236	-0.29687289	-0.60721925	1.0235796	0.15978382	-0.73801138	0.87945419	-0.30641711	-0.39448975	0.89178841	0.13070223
125	0.496	-0.16927107	0.10966954	-0.1498793	-0.73863661	0.039023945	-0.052691709	-0.29634068	0.077573981	-0.18896452	-0.88110182	0.054126835	-0.027502068	-0.30035683	0.10620584	-0.10686623	-0.85481772	0.083621991	-0.10800686	-0.34259529	0.0230669	-0.14713002	-0.92939749	0.032472524	-0.08237307	-0.42592122	0.4425724	-0.21441798	-0.75208302	0.43955303	0.043477981	-0.41971313	0.42245145	-0.094222594	-0.73212992	0.44243266	-0.085458101	-0.56207039	0.80960792	-0.25803971	-0.6663027	0.84133408	0.11383129	-0.52213477	0.91612688	-0.18105355	-0.56610476	0.92631841	0.057974488	-0.74326005	0.93917161	-0.10806112	-0.57946498	1.3961728	-0.21293424	-0.59541249	1.3816967	0.10714248	-0.66916174	1.4221158	-0.058546058	-0.7683999	1.1226316	-0.29791527	-0.59968701	1.0218843	0.15923993	-0.73473635	0.87801017	-0.30470596	-0.38548731	0.89276953	0.12904994
126	0.5	-0.15746016	0.11282661	-0.14750497	-0.73857622	0.038954215	-0.052747662	-0.2836583	0.07853756	-0.18754991	-0.88080742	0.054517351	-0.027650752	-0.28939295	0.10675625	-0.10591402	-0.85449352	0.083584231	-0.10828507	-0.32923392	0.022973777	-0.14678824	-0.92931522	0.032833345	-0.082482466	-0.41926838	0.44143702	-0.21333101	-0.74807475	0.43858027	0.042817866	-0.413723	0.42131665	-0.092903639	-0.72759049	0.44134524	-0.085900535	-0.55545111	0.80802641	-0.25801651	-0.66128087	0.83994131	0.1133633	-0.51537884	0.91474128	-0.18096962	-0.56093123	0.92497786	0.058053136	-0.73635636	0.93698215	-0.10966576	-0.57370708	1.3945362	-0.21283787	-0.58982924	1.3802463	0.10727928	-0.66375486	1.4205428	-0.058561984	-0.76320515	1.1216115	-0.29868726	-0.59221999	1.0202343	0.15872158	-0.73147767	0.87660969	-0.30305574	-0.37664411	0.8937279	0.12734662
127	0.504	-0.14613903	0.11555805	-0.14528312	-0.7385107	0.038902048	-0.052782532	-0.27153617	0.079520761	-0.1862446	-0.88056278	0.054851729	-0.027782828	-0.27919765	0.10697932	-0.10517432	-0.8541444	0.083578766	-0.10855432	-0.31664047	0.02298579	-0.14690067	-0.92922843	0.033247115	-0.082611728	-0.41223515	0.44043432	-0.21215427	-0.74407539	0.43756223	0.042121385	-0.40766	0.42027593	-0.09156399	-0.72301076	0.44017942	-0.086407639	-0.54875497	0.80639233	-0.25801307	-0.65618571	0.83848639	0.11289209	-0.50878414	0.91342853	-0.18079746	-0.55569486	0.92359508	0.058099696	-0.72947688	0.93473712	-0.1113841	-0.56801393	1.3929063	-0.21275681	-0.58421403	1.378798	0.10740917	-0.65826793	1.4189649	-0.058597616	-0.75790773	1.1205464	-0.2992717	-0.5848103	1.0186176	0.15818712	-0.72804087	0.87529934	-0.30159614	-0.36790877	0.89467773	0.12562385
128	0.508	-0.13533251	0.11781375	-0.14322098	-0.73844287	0.03886428	-0.052805655	-0.26003395	0.080401877	-0.18496074	-0.88036373	0.055174126	-0.02791695	-0.26937025	0.10703986	-0.10430572	-0.85377787	0.08361188	-0.10882172	-0.30471496	0.022962508	-0.14698752	-0.92913198	0.033732814	-0.082765648	-0.40497225	0.43956262	-0.21097702	-0.74007245	0.43649733	0.041400339	-0.40150818	0.41931303	-0.090247022	-0.71841273	0.43894315	-0.086970214	-0.54196887	0.8047019	-0.25801112	-0.65103111	0.83696293	0.11244041	-0.50230157	0.91215109	-0.18056163	-0.55039372	0.92218035	0.058113718	-0.72269638	0.93250829	-0.1130876	-0.56236081	1.3912786	-0.21267283	-0.57860516	1.3773442	0.10749352	-0.65272636	1.4174109	-0.058650079	-0.75254081	1.1194409	-0.29981533	-0.57743867	1.0170258	0.15761377	-0.72436319	0.87404769	-0.30026918	-0.35924887	0.8956242	0.12390571
129	0.512	-0.12509279	0.11956354	-0.1413561	-0.73837528	0.038830054	-0.0528266	-0.2492171	0.081042985	-0.1836265	-0.88020188	0.055522194	-0.028075761	-0.25968584	0.10705121	-0.1031265	-0.8533941	0.083683332	-0.10909408	-0.29346822	0.022831028	-0.14667552	-0.92901946	0.034289701	-0.082940108	-0.39764708	0.43880839	-0.20988741	-0.73600206	0.43539288	0.040694816	-0.39526385	0.41840401	-0.088983614	-0.71382485	0.43762994	-0.087571303	-0.53506985	0.8029465	-0.25797488	-0.64582588	0.835367	0.11202805	-0.49584562	0.91085827	-0.18031348	-0.54497932	0.92073762	0.058069568	-0.71597476	0.93029797	-0.11476835	-0.55669323	1.3896441	-0.2125821	-0.57300554	1.3758754	0.10752009	-0.64717678	1.4158947	-0.058726967	-0.74711984	1.1182983	-0.30037169	-0.57010617	1.0154615	0.15701549	-0.72048513	0.8728105	-0.29899032	-0.3506694	0.8965627	0.12219782
130	0.516	-0.1154713	0.12079302	-0.13974217	-0.73830973	0.038786119	-0.05285072	-0.23913806	0.08133577	-0.18221742	-0.88007454	0.055906966	-0.028277953	-0.25023523	0.10699914	-0.10170177	-0.85297999	0.083783036	-0.10937793	-0.28300969	0.022547002	-0.14581457	-0.92888781	0.034907934	-0.083138674	-0.39028363	0.43812104	-0.20889648	-0.73184749	0.4342428	0.040016715	-0.38893711	0.4175268	-0.087789273	-0.70920407	0.43623596	-0.088187445	-0.52803946	0.80112298	-0.2578702	-0.64057541	0.83370749	0.11166411	-0.48937056	0.90953117	-0.18006757	-0.53935414	0.91925603	0.057907323	-0.70909273	0.92803276	-0.11649797	-0.55099372	1.3879954	-0.21250202	-0.56739756	1.3743945	0.10750375	-0.64162851	1.414394	-0.058832251	-0.74164651	1.1171192	-0.3009431	-0.56281976	1.0139301	0.15640926	-0.71650043	0.87156666	-0.2977262	-0.34218716	0.89749243	0.12049528
131	0.52	-0.10649318	0.12149184	-0.13841913	-0.7382502	0.038721219	-0.052878128	-0.22982037	0.081225558	-0.18075045	-0.87996421	0.056331182	-0.028526285	-0.24123479	0.1068058	-0.10019577	-0.85252338	0.083899793	-0.10967168	-0.27339483	0.022060091	-0.14442991	-0.92874069	0.035585008	-0.083378579	-0.38284423	0.43744761	-0.20795952	-0.72762915	0.43304654	0.039341691	-0.38253698	0.41667321	-0.086678312	-0.70439789	0.43478035	-0.088786685	-0.52087724	0.79924365	-0.25768646	-0.63528678	0.8320051	0.11135022	-0.48287081	0.90817363	-0.17980312	-0.53344969	0.91771847	0.057591917	-0.70162879	0.92558321	-0.11836374	-0.54527618	1.3863333	-0.21245501	-0.56177138	1.3729082	0.10745701	-0.63604992	1.4128689	-0.058958378	-0.73611755	1.1159013	-0.30152923	-0.55558226	1.0124363	0.15580161	-0.71249363	0.87031371	-0.29647453	-0.33382052	0.89841237	0.11878454
